<?xml version="1.0" encoding="UTF-8"?>
<svg id="Capa_2" data-name="Capa 2" xmlns="http://www.w3.org/2000/svg" viewBox="0 0 448.2 328.13">
  <defs>
    <style>
      .cls-1 {
        fill: #d9dbdc;
        stroke-width: 0px;
      }
    </style>
  </defs>
  <g id="Capa_1-2" data-name="Capa 1">
    <path class="cls-1" d="m441.58,109.56c-4.41-7.69-10.31-14.43-17.69-20.23-2.38-1.87-4.94-3.56-7.57-5.17-26.45-20.29-90.53-35.64-103.42-38.58-1.51-.34-2.92-.89-4.28-1.62-9.11-4.87-47.8-23.66-84.96-13.46-2.62.72-5.45.27-7.66-1.3C164.07-7.81,138.18-2.02,126.74,5.82c-4.87,3.34-7.47,9.09-7.25,14.99.47,12.8-.78,41.24-18.48,63.15-16.75,20.73-21.58,40.54-22.98,77.46h-.02C9.74,153.62,7.32,105.29,13.13,74.29c.44-2.37-2.94-3.32-3.81-1.06-34.04,88.57,33.52,108.4,68.2,112.81-.07,9.16-.08,19.09-.08,30.16,0,56.44,47.16,90.57,71.35,104.37,6.12,3.49,13.7-1.06,13.48-8.1-.08-2.55-1.49-4.83-3.7-6.1-15.66-8.99-42.19-40.56-44.78-69.39-11.77-70.85,26.79-87.91,48.93-91.24.05,0,.11-.02.17-.02,10.12-1.44,19.05,6.85,19.05,17.07v83s0,26.7,0,26.7v48.51c0,1.95.54,3.63,1.63,5.04,1.08,1.4,2.42,2.1,4.01,2.1h45.79c2.6,0,4.34-.67,5.21-2.01.87-1.34,1.3-3.05,1.3-5.13v-71.95c0-3.47.51-6.76,1.52-9.87,1.01-3.11,2.53-5.86,4.56-8.24,2.02-2.39,4.45-4.31,7.27-5.75,2.82-1.44,6.11-2.17,9.87-2.17s6.87.73,9.77,2.17c2.89,1.45,5.32,3.37,7.27,5.75,1.95,2.39,3.43,5.14,4.45,8.24,1.01,3.11,1.52,6.4,1.52,9.87v71.95c0,1.95.58,3.63,1.74,5.04,1.16,1.4,2.53,2.1,4.12,2.1h45.79c2.61,0,4.31-.67,5.1-2.01.79-1.34,1.2-2.99,1.2-4.94v-73c.14-3.33.76-6.51,1.84-9.55,1.08-3.04,2.6-5.71,4.56-8.03,1.95-2.31,4.34-4.15,7.16-5.53,2.82-1.37,6.04-2.06,9.65-2.06s6.87.73,9.77,2.17c2.89,1.45,5.32,3.37,7.27,5.75,1.95,2.39,3.47,5.14,4.56,8.24,1.09,3.11,1.63,6.4,1.63,9.87v71.77c0,1.95.58,3.66,1.74,5.13,1.16,1.46,2.89,2.2,5.21,2.2h44.05c2.46,0,4.19-.76,5.21-2.29,1.01-1.53,1.52-3.2,1.52-5.04v-186.53c0-8.79-2.21-17.02-6.62-24.71Z"/>
  </g>
</svg>