<?xml version="1.0" encoding="UTF-8"?>
<svg id="Capa_2" data-name="Capa 2" xmlns="http://www.w3.org/2000/svg" viewBox="0 0 219.62 50.2">
  <defs>
    <style>
      .cls-1 {
        fill: #2a2d2f;
      }

      .cls-1, .cls-2 {
        stroke-width: 0px;
      }

      .cls-2 {
        fill: #ef7a33;
      }
    </style>
  </defs>
  <g id="Capa_1-2" data-name="Capa 1">
    <g>
      <path class="cls-1" d="m9.39,48.06c0,.4-.07.73-.21.98-.14.26-.42.39-.84.39H.91c-.26,0-.47-.13-.65-.4-.18-.27-.26-.59-.26-.97V12.2c0-1.69.35-3.27,1.05-4.75s1.66-2.77,2.87-3.88c1.21-1.11,2.6-1.99,4.18-2.62s3.25-.95,5.01-.95c1.57,0,3.08.26,4.52.77,1.44.52,2.75,1.23,3.92,2.14,1.15-.91,2.44-1.63,3.88-2.14,1.44-.51,2.96-.77,4.55-.77,1.76,0,3.43.32,5.03.95,1.59.63,2.99,1.51,4.18,2.62,1.2,1.11,2.15,2.41,2.87,3.88.71,1.48,1.07,3.06,1.07,4.75v35.82c0,.35-.08.67-.25.97-.16.29-.45.44-.84.44h-7.14c-.38,0-.66-.14-.84-.42-.19-.28-.28-.61-.28-.98V12.73c0-.56-.09-1.09-.26-1.6-.18-.5-.42-.95-.74-1.34s-.71-.7-1.18-.93c-.47-.23-1-.35-1.58-.35s-1.11.11-1.56.33c-.46.22-.84.52-1.16.9-.32.38-.56.81-.74,1.3s-.28,1.01-.3,1.55v35.51c0,.38-.06.69-.19.95-.13.26-.4.39-.83.39h-7.42c-.26,0-.48-.13-.67-.4-.19-.27-.28-.59-.28-.97V12.73c0-.56-.08-1.09-.25-1.6-.16-.5-.4-.95-.72-1.34s-.71-.7-1.18-.93c-.47-.23-1-.35-1.58-.35s-1.14.12-1.6.35c-.46.23-.85.54-1.18.93-.33.39-.57.83-.74,1.34-.16.5-.25,1.04-.25,1.6v35.33Z"/>
      <path class="cls-1" d="m47.11,12.23c0-1.9.35-3.6,1.05-5.12s1.65-2.79,2.85-3.85,2.58-1.86,4.17-2.41c1.58-.55,3.25-.83,5.01-.83s3.43.28,5.03.83c1.59.55,2.99,1.35,4.2,2.39,1.21,1.04,2.17,2.32,2.88,3.83.71,1.51,1.07,3.23,1.07,5.15v25.77c0,1.9-.36,3.6-1.07,5.12-.72,1.51-1.68,2.79-2.88,3.85-1.21,1.05-2.61,1.86-4.2,2.41-1.59.55-3.27.83-5.03.83s-3.43-.29-5.01-.86-2.97-1.39-4.17-2.44-2.14-2.33-2.85-3.83c-.7-1.5-1.05-3.19-1.05-5.06V12.23Zm9.35,25.28c0,.56.08,1.1.25,1.6.16.5.4.95.72,1.34s.7.7,1.16.93c.46.23.99.35,1.6.35s1.15-.11,1.62-.32c.47-.21.87-.5,1.2-.86.33-.36.58-.79.76-1.27.18-.48.26-1,.26-1.56V12.76c0-.56-.09-1.1-.26-1.62-.18-.51-.42-.97-.74-1.37-.32-.4-.71-.71-1.18-.95-.47-.23-1-.35-1.58-.35s-1.15.12-1.62.35c-.47.23-.86.55-1.18.95-.32.4-.56.86-.74,1.37-.18.52-.26,1.05-.26,1.62v24.75Z"/>
      <path class="cls-1" d="m86.73,48.06c0,.4-.08.73-.23.98-.15.26-.43.39-.83.39h-7.42c-.26,0-.47-.13-.65-.4-.18-.27-.26-.59-.26-.97V12.2c0-1.69.35-3.27,1.05-4.75s1.66-2.77,2.87-3.88c1.21-1.11,2.6-1.99,4.18-2.62s3.25-.95,5.01-.95,3.43.32,5.03.95c1.59.63,2.99,1.51,4.18,2.62,1.2,1.11,2.15,2.41,2.87,3.88.71,1.48,1.07,3.06,1.07,4.75v35.82c0,.35-.09.67-.26.97-.18.29-.46.44-.86.44h-7.14c-.35,0-.63-.14-.83-.42-.2-.28-.3-.61-.3-.98V12.73c0-.56-.08-1.09-.25-1.6-.16-.5-.4-.95-.72-1.34s-.71-.7-1.18-.93c-.47-.23-1-.35-1.58-.35s-1.14.12-1.6.35c-.46.23-.85.54-1.18.93-.33.39-.57.83-.74,1.34-.16.5-.25,1.04-.25,1.6v35.33Z"/>
      <path class="cls-2" d="m117.19,39.08c.18.5.43.96.76,1.35.33.4.73.72,1.2.95.47.23,1.01.35,1.62.35s1.19-.12,1.67-.35c.48-.23.88-.55,1.2-.95.32-.4.55-.85.7-1.35.15-.5.23-1.04.23-1.6v-4.18c0-.54.08-.9.23-1.09.15-.19.43-.28.83-.28h6.57c.4,0,.69.08.88.25.19.16.28.52.28,1.05v4.78c0,1.9-.33,3.6-.98,5.12-.66,1.51-1.56,2.79-2.71,3.85-1.15,1.05-2.49,1.86-4.03,2.41-1.54.55-3.18.83-4.94.83s-3.43-.28-5.03-.83c-1.59-.55-2.99-1.35-4.18-2.41s-2.14-2.34-2.85-3.85-1.05-3.22-1.05-5.12V12.23c0-1.73.32-3.34.97-4.83.64-1.49,1.55-2.78,2.71-3.87s2.54-1.95,4.15-2.57c1.6-.62,3.37-.93,5.29-.93,2.13,0,3.98.36,5.55,1.07,1.57.72,2.87,1.65,3.88,2.81s1.78,2.48,2.27,3.96.74,2.99.74,4.54v3.41c0,.54-.07.93-.21,1.18s-.45.37-.91.37h-6.54c-.42,0-.71-.11-.86-.33-.15-.22-.23-.58-.23-1.07v-3.27c0-.51-.08-1.02-.25-1.53-.16-.5-.4-.95-.7-1.35-.3-.4-.68-.72-1.12-.97-.45-.25-.96-.37-1.55-.37s-1.08.11-1.56.33c-.48.22-.88.53-1.21.91-.33.39-.59.83-.77,1.32-.19.49-.28,1.02-.28,1.58v24.86c0,.56.09,1.1.26,1.6Z"/>
      <path class="cls-2" d="m136.44,12.23c0-1.9.35-3.6,1.05-5.12s1.65-2.79,2.85-3.85,2.58-1.86,4.17-2.41c1.58-.55,3.25-.83,5.01-.83s3.43.28,5.03.83c1.59.55,2.99,1.35,4.2,2.39,1.21,1.04,2.17,2.32,2.88,3.83.71,1.51,1.07,3.23,1.07,5.15v25.77c0,1.9-.36,3.6-1.07,5.12-.72,1.51-1.68,2.79-2.88,3.85-1.21,1.05-2.61,1.86-4.2,2.41-1.59.55-3.27.83-5.03.83s-3.43-.29-5.01-.86-2.97-1.39-4.17-2.44-2.14-2.33-2.85-3.83c-.7-1.5-1.05-3.19-1.05-5.06V12.23Zm9.35,25.28c0,.56.08,1.1.25,1.6.16.5.4.95.72,1.34s.7.7,1.16.93c.46.23.99.35,1.6.35s1.15-.11,1.62-.32c.47-.21.87-.5,1.2-.86.33-.36.58-.79.76-1.27.18-.48.26-1,.26-1.56V12.76c0-.56-.09-1.1-.26-1.62-.18-.51-.42-.97-.74-1.37-.32-.4-.71-.71-1.18-.95-.47-.23-1-.35-1.58-.35s-1.15.12-1.62.35c-.47.23-.86.55-1.18.95-.32.4-.56.86-.74,1.37-.18.52-.26,1.05-.26,1.62v24.75Z"/>
      <path class="cls-2" d="m176.06,48.06c0,.4-.08.73-.23.98-.15.26-.43.39-.83.39h-7.42c-.26,0-.47-.13-.65-.4-.18-.27-.26-.59-.26-.97V12.2c0-1.69.35-3.27,1.05-4.75s1.66-2.77,2.87-3.88c1.21-1.11,2.6-1.99,4.18-2.62s3.25-.95,5.01-.95,3.43.32,5.03.95c1.59.63,2.99,1.51,4.18,2.62,1.2,1.11,2.15,2.41,2.87,3.88.71,1.48,1.07,3.06,1.07,4.75v35.82c0,.35-.09.67-.26.97-.18.29-.46.44-.86.44h-7.14c-.35,0-.63-.14-.83-.42-.2-.28-.3-.61-.3-.98V12.73c0-.56-.08-1.09-.25-1.6-.16-.5-.4-.95-.72-1.34s-.71-.7-1.18-.93c-.47-.23-1-.35-1.58-.35s-1.14.12-1.6.35c-.46.23-.85.54-1.18.93-.33.39-.57.83-.74,1.34-.16.5-.25,1.04-.25,1.6v35.33Z"/>
      <path class="cls-2" d="m195.12,2.07c0-.42.09-.74.28-.97.19-.22.43-.33.74-.33h22.46c.3,0,.55.11.74.32s.28.53.28.95v6.01c0,.42-.09.74-.28.95s-.43.32-.74.32h-6.54v38.88c0,.4-.1.7-.3.91-.2.21-.44.32-.72.32h-7.35c-.3,0-.55-.11-.74-.32-.19-.21-.28-.51-.28-.91V9.32h-6.54c-.3,0-.55-.11-.74-.32-.19-.21-.28-.53-.28-.95V2.07Z"/>
    </g>
  </g>
</svg>